<svg width="800" height="610" xmlns="http://www.w3.org/2000/svg">
 <g>
  <title>Layer 1</title>
  <path fill="none" stroke="#000" opacity="NaN" d="m193.53929,169.1863" id="svg_52"/>
  <path transform="rotate(-9 140.745 327.03)" stroke="#000" stroke-width="5" fill="#000" opacity="NaN" d="m214.2593,131.06278c-91.5454,1.02467 -152.86535,26.29705 -179.16742,75.82517c-26.30207,49.52811 -27.01885,178.55933 9.15455,243.87012c36.1734,65.31079 116.98746,92.77748 181.78301,55.33187c64.79555,-37.44561 8.09776,-211.46234 -7.8368,-231.36329c-15.93456,-19.90095 -64.64236,-8.6669 -82.39085,1.02467c-17.74849,9.69156 -23.46589,30.65281 -1.30779,50.20855c22.1581,19.55574 26.42036,-40.38524 54.92724,-3.074c28.50688,37.31125 33.07902,123.36268 10.91096,136.46985c-22.16806,13.10717 -81.10443,4.65717 -102.87167,-30.74711c-21.76723,-35.40428 -10.62753,-136.0091 -2.78077,-171.87235c7.84676,-35.86326 77.39327,-16.54663 118.5977,-28.55624c41.20443,-12.00962 92.52726,-98.14189 0.98186,-97.11723l-0.00002,-0.00001z" id="svg_57"/>
  <path stroke="#000" stroke-width="5" fill="#000" opacity="NaN" d="m313.57066,489.49963c5.04441,11.78668 30.75636,22.57439 58.76695,12.08062c28.0106,-10.49379 -43.41982,-167.87216 -25.31102,-164.53448c18.10879,3.33769 91.16134,121.77141 106.79469,153.99189c15.63335,32.22048 44.57337,67.90718 51.78038,0.93714c3.60351,-33.48503 -25.05608,-57.4567 -52.00323,-86.69121c-26.94716,-29.2345 -52.18188,-63.73185 -49.72868,-86.26809c2.45321,-22.53624 44.19968,-37.80346 81.58959,-71.51182c37.38992,-33.70836 68.72983,-97.05558 37.1172,-139.65925c-31.61263,-42.60367 -43.53502,64.98433 -88.13755,127.78341c-44.60254,62.79908 -52.81469,81.52636 -88.31124,66.95179c-35.49655,-14.57457 22.38145,-158.92083 12.93224,-177.83947c-9.4492,-18.91863 -49.61081,-8.211 -65.41071,19.55573c-18.01318,39.70057 -5.02624,85.40115 -3.03935,143.10177c1.9869,57.70063 22.97385,144.40134 22.96073,202.10197z" id="svg_58"/>
  <path fill="none" stroke="#000" opacity="NaN" d="m444.3419,179.67001" id="svg_60"/>
  <path transform="rotate(10.8487 659.413 331.393)" stroke="#000" d="m569.11454,504.71327c28.06531,42.18169 78.90605,24.22383 127.32412,-9.77349c48.41808,-33.99732 94.07032,-144.95742 81.38663,-233.53427c-12.68369,-88.57685 -177.35944,-153.54477 -216.70118,-118.04942c-39.34174,35.49535 -20.07489,319.17549 7.99042,361.35718zm24.18318,-26.26225c20.74386,30.92053 60.90023,14.3979 89.84733,-19.50435c28.9471,-33.90225 56.45454,-155.19462 32.90235,-184.83832c-23.55218,-29.6437 -77.47956,-60.51694 -110.67793,-45.07355c-33.19838,15.44339 -32.81561,218.4957 -12.07175,249.41622z" fill="#000" id="svg_63" fill-rule="evenodd"/>
 </g>

</svg>